<svg xmlns="http://www.w3.org/2000/svg" data-name="Gruppe 9214" viewBox="0 0 307.349 80">
	<path fill="#c80f0f" d="M24.906 45.707V28.98a5.918 5.918 0 0 0-2.413-4.857 7.627 7.627 0 0 0-5.174-1.9h-.848a7.333 7.333 0 0 0-5.291 2.237 6.659 6.659 0 0 0-2.39 5.059v15.469a6.66 6.66 0 0 0 2.39 5.058 7.331 7.331 0 0 0 5.291 2.237h.848a7.689 7.689 0 0 0 5.174-1.911 5.729 5.729 0 0 0 2.413-4.665Zm-.983 12.174a8.264 8.264 0 0 0-.818.626l-.076.061q-.082.065-.167.129t-.174.127q-.089.063-.182.124t-.188.122l-.194.118q-.094.058-.2.115-.1.057-.207.111t-.212.107q-.108.053-.218.1t-.223.1q-.113.048-.226.093t-.226.086q-.112.041-.224.079a11.469 11.469 0 0 1-.445.137 6.521 6.521 0 0 1-.438.109c-.072.016-.144.031-.215.044s-.142.028-.212.039a16.5 16.5 0 0 1-2.666.228h-.68a16.109 16.109 0 0 1-11.108-4.377A14.538 14.538 0 0 1 0 45.586V28.922a14.538 14.538 0 0 1 4.621-10.574 16.109 16.109 0 0 1 11.108-4.377h.871a19.768 19.768 0 0 1 2.351.171l.212.036c.073.012.146.025.22.04l.223.046a10.951 10.951 0 0 1 .68.18c.076.024.153.048.23.074a8.934 8.934 0 0 1 .899.359c.072.037.143.066.212.1s.138.069.206.1.135.071.2.108l.194.111.059.035.085.053.082.054.082.054.079.055.08.055.077.056.077.056.074.057.074.056.071.057.071.057.068.058.068.058.065.058.065.058.062.058.062.058a1.049 1.049 0 0 0 .128.1.916.916 0 0 0 .112.061.848.848 0 0 0 .32.063.815.815 0 0 0 .32-.065.792.792 0 0 0 .14-.076.834.834 0 0 0 .122-.1.792.792 0 0 0 .1-.122.826.826 0 0 0 .076-.14.808.808 0 0 0 .048-.155.823.823 0 0 0 .02-.166c-.006-.549-.018-1.3.6-1.479a4.377 4.377 0 0 1 1.184-.054h5.616c.572 0 1.437-.141 1.674.561a8.873 8.873 0 0 1 .058 2.168v35.534a84.475 84.475 0 0 1-.229 9.49c-.99 8.761-5.364 16.205-14.62 17.839-5.6.988-11.187-1.01-15.514-4.585-.529-.437-1.625-1.17-1.581-1.921a1.178 1.178 0 0 1 .319-.7s3.587-3.8 3.85-4.131c.254-.282.61-.69 1.009-.688.566 0 1.155.532 2.18 1.134a16.106 16.106 0 0 0 5.614 2.266 8.606 8.606 0 0 0 3.835-.376c4.7-1.523 6-7.458 6.265-12.108v-.079a.761.761 0 0 0 0-.083.772.772 0 0 0-.012-.08.744.744 0 0 0-.081-.223.668.668 0 0 0-.088-.129 1.433 1.433 0 0 0-.052-.058.807.807 0 0 0-.12-.1.748.748 0 0 0-.138-.075.743.743 0 0 0-.074-.027.73.73 0 0 0-.077-.02.77.77 0 0 0-.081-.012.827.827 0 0 0-.166 0 .761.761 0 0 0-.08.012.774.774 0 0 0-.078.02.744.744 0 0 0-.074.027c-.024.01-.114.06-.135.075Z" data-name="Pfad 8015"/>
	<path fill="#c80f0f" d="M97.441 59.464v-6.118a1.012 1.012 0 0 0-.28-.777 1.058 1.058 0 0 0-.739-.242H79.598a1.388 1.388 0 0 1-.867-.217.723.723 0 0 1-.267-.574 1.469 1.469 0 0 1 .216-.742L97.114 15.96a2.324 2.324 0 0 0 .14-.357 1.309 1.309 0 0 0 .064-.357q-.026-.79-1.122-.815h-30.2a.876.876 0 0 0-1.02 1.02v6.123a.876.876 0 0 0 1.02 1.02h15.772a1.433 1.433 0 0 1 .84.208.719.719 0 0 1 .282.609 1.321 1.321 0 0 1-.064.358 2.327 2.327 0 0 1-.14.357L64.061 58.954a2.323 2.323 0 0 0-.14.357 1.313 1.313 0 0 0-.064.357q.025.79 1.122.815h31.443a.876.876 0 0 0 1.02-1.019Z" data-name="Pfad 8016"/>
	<path fill="#c80f0f" d="M45.205 8.511a1.219 1.219 0 0 0 .3.77 1.319 1.319 0 0 0 .925.317h6.357a1.32 1.32 0 0 0 .926-.317 1.052 1.052 0 0 0 .3-.759s0-.177 0-.185V1.264a1.352 1.352 0 0 0-.31-.944 1.319 1.319 0 0 0-.926-.32h-.505a1.345 1.345 0 0 0-1.089.474l-5.335 5.963-.256.3a1.38 1.38 0 0 0-.4.97v.627c0 .051.009.175.009.175Z" data-name="Pfad 8017"/>
	<path fill="#c80f0f" d="M53.969 15.483a1.165 1.165 0 0 0-.255-.817 1.11 1.11 0 0 0-.841-.273h-6.618a1.069 1.069 0 0 0-.841.316 1.156 1.156 0 0 0-.26.774v25.078l.008 18.832a1.161 1.161 0 0 0 .255.817 1.115 1.115 0 0 0 .841.273h6.618a1.069 1.069 0 0 0 .841-.316 1.148 1.148 0 0 0 .254-.774v-43.91Z" data-name="Pfad 8018"/>
	<path fill="#c80f0f" d="M120.475 59.679a.551.551 0 0 0-.46-.194h-4.063l4.58-8.8a.881.881 0 0 0 .113-.42.685.685 0 0 0-.21-.5.721.721 0 0 0-.532-.21h-4.612a.546.546 0 0 0-.468.194.68.68 0 0 0 0 .84.546.546 0 0 0 .468.194h3.822l-4.564 8.768a.8.8 0 0 0-.1.388.846.846 0 0 0 .185.541.63.63 0 0 0 .524.234h4.854a.551.551 0 0 0 .46-.194.652.652 0 0 0 0-.84Zm7.9-6.233a.552.552 0 0 0-.194-.46.65.65 0 0 0-.839 0 .55.55 0 0 0-.194.459v4.752a1.318 1.318 0 0 1-.4.967 1.339 1.339 0 0 1-.984.4h-.145a1.376 1.376 0 0 1-1.371-1.369v-4.752a.55.55 0 0 0-.194-.459.65.65 0 0 0-.839 0 .552.552 0 0 0-.194.46v4.764a2.915 2.915 0 0 0 .21 1.163 2.235 2.235 0 0 0 .564.8 2.294 2.294 0 0 0 .831.468 3.212 3.212 0 0 0 .992.153h.145a2.505 2.505 0 0 0 .79-.123 1.466 1.466 0 0 0 .6-.352.525.525 0 0 0 .226.36.7.7 0 0 0 .387.115.662.662 0 0 0 .419-.153.533.533 0 0 0 .194-.444v-6.75Zm8.26 5.028a2.14 2.14 0 0 0-.314-1.24 2.24 2.24 0 0 0-.774-.7 3.829 3.829 0 0 0-1.008-.371q-.548-.121-1.008-.242a2.707 2.707 0 0 1-.774-.322.685.685 0 0 1-.314-.62v-.052a.792.792 0 0 1 .371-.612 1.741 1.741 0 0 1 1.032-.258h.065a1.945 1.945 0 0 1 .855.153l.564.283a.8.8 0 0 0 .355.1.54.54 0 0 0 .419-.178.585.585 0 0 0 .161-.4.577.577 0 0 0-.226-.474 3.161 3.161 0 0 0-.282-.2 2.509 2.509 0 0 0-.452-.229 4.35 4.35 0 0 0-.613-.188 3.344 3.344 0 0 0-.766-.082h-.064a3.841 3.841 0 0 0-.847.1 2.836 2.836 0 0 0-.855.346 2.217 2.217 0 0 0-.669.636 1.666 1.666 0 0 0-.274.974 1.888 1.888 0 0 0 .314 1.168 2.16 2.16 0 0 0 .774.636 3.957 3.957 0 0 0 1.008.33 8.95 8.95 0 0 1 1.008.25 2.384 2.384 0 0 1 .774.395.918.918 0 0 1 .314.765v.048a1.031 1.031 0 0 1-.411.741 1.7 1.7 0 0 1-1.137.338h-.081a1.672 1.672 0 0 1-.919-.307 3.07 3.07 0 0 1-.774-.711.578.578 0 0 0-.258-.218.8.8 0 0 0-.29-.057.663.663 0 0 0-.435.161.539.539 0 0 0-.193.436 1.387 1.387 0 0 0 .081.307 2.692 2.692 0 0 0 .5.674 3.049 3.049 0 0 0 .677.507 3.629 3.629 0 0 0 .782.319 2.979 2.979 0 0 0 .8.115h.1a3.585 3.585 0 0 0 1-.145 3.043 3.043 0 0 0 .9-.427 2.177 2.177 0 0 0 .645-.7 1.93 1.93 0 0 0 .242-.983v-.064Zm8.512 1.343a.585.585 0 0 0-.4-.218.481.481 0 0 1-.419-.533V55.32a2.437 2.437 0 0 0-.194-.969 2.5 2.5 0 0 0-.532-.791 2.453 2.453 0 0 0-.806-.533 2.586 2.586 0 0 0-1-.194h-.113a3.142 3.142 0 0 0-.661.073 2.58 2.58 0 0 0-.661.242 2.4 2.4 0 0 0-.6.46 2.464 2.464 0 0 0-.476.727.582.582 0 0 0-.065.291.5.5 0 0 0 .193.412.66.66 0 0 0 .419.153.676.676 0 0 0 .306-.073.573.573 0 0 0 .242-.25 1.775 1.775 0 0 1 .516-.606 1.364 1.364 0 0 1 .79-.2h.113a1.487 1.487 0 0 1 .919.291 1.2 1.2 0 0 1 .387 1.017c0 .043 0 .092-.008.145a.284.284 0 0 1-.04.129.753.753 0 0 1-.444.2q-.347.073-.8.153t-.951.21a3.485 3.485 0 0 0-.919.379 2.144 2.144 0 0 0-.693.662 1.84 1.84 0 0 0-.274 1.042v.194a2.143 2.143 0 0 0 .226 1 2.231 2.231 0 0 0 .589.727 2.5 2.5 0 0 0 .83.436 3.187 3.187 0 0 0 .951.145h.145a2.568 2.568 0 0 0 1.742-.63 1.449 1.449 0 0 0 .419.388 1.787 1.787 0 0 0 .677.226.216.216 0 0 0 .113.016.543.543 0 0 0 .443-.186.653.653 0 0 0 .153-.428.614.614 0 0 0-.121-.363Zm-2.04-1.623a1.3 1.3 0 0 1-.411.977 1.359 1.359 0 0 1-.976.4h-.145a1.527 1.527 0 0 1-.992-.307 1 1 0 0 1-.379-.824v-.129a.78.78 0 0 1 .282-.646 2.086 2.086 0 0 1 .718-.355 6.61 6.61 0 0 1 .943-.2 9.471 9.471 0 0 0 .96-.186V58.2Zm14.141-2.777a2.934 2.934 0 0 0-.21-1.155 2.179 2.179 0 0 0-.572-.807 2.391 2.391 0 0 0-.831-.468 3.139 3.139 0 0 0-.984-.153h-.145a2.5 2.5 0 0 0-1.121.25.912.912 0 0 1-1.758 0 2.5 2.5 0 0 0-1.121-.25h-.144a2.387 2.387 0 0 0-.79.129 1.548 1.548 0 0 0-.6.355.548.548 0 0 0-.226-.363.649.649 0 0 0-.371-.121.662.662 0 0 0-.435.161.556.556 0 0 0-.194.452v6.75a.528.528 0 0 0 .194.452.678.678 0 0 0 .839 0 .529.529 0 0 0 .193-.452v-4.893a1.1 1.1 0 0 1 .419-.9 1.494 1.494 0 0 1 .968-.339h.145a1.367 1.367 0 0 1 .984.388 1.328 1.328 0 0 1 .4 1v4.715a.571.571 0 0 0 .193.476.65.65 0 0 0 .839 0 .571.571 0 0 0 .193-.476v-4.715a1.334 1.334 0 0 1 .4-.993 1.351 1.351 0 0 1 .984-.4h.145a1.431 1.431 0 0 1 .992.339 1.3 1.3 0 0 1 .379 1.017v4.78a.529.529 0 0 0 .193.452.678.678 0 0 0 .839 0 .529.529 0 0 0 .193-.452v-4.78Zm12.35 0a2.936 2.936 0 0 0-.21-1.155 2.179 2.179 0 0 0-.573-.807 2.391 2.391 0 0 0-.831-.468 3.138 3.138 0 0 0-.984-.153h-.138a2.5 2.5 0 0 0-1.121.25.911.911 0 0 1-1.758 0 2.5 2.5 0 0 0-1.121-.25h-.145a2.386 2.386 0 0 0-.79.129 1.547 1.547 0 0 0-.6.355.548.548 0 0 0-.226-.363.649.649 0 0 0-.371-.121.662.662 0 0 0-.435.161.556.556 0 0 0-.193.452v6.75a.529.529 0 0 0 .193.452.677.677 0 0 0 .839 0 .528.528 0 0 0 .194-.452v-4.893a1.1 1.1 0 0 1 .419-.9 1.494 1.494 0 0 1 .968-.339h.145a1.367 1.367 0 0 1 .984.388 1.328 1.328 0 0 1 .4 1v4.715a.57.57 0 0 0 .194.476.65.65 0 0 0 .839 0 .571.571 0 0 0 .194-.476v-4.715a1.334 1.334 0 0 1 .4-.993 1.352 1.352 0 0 1 .984-.4H167a1.431 1.431 0 0 1 .992.339 1.3 1.3 0 0 1 .379 1.017v4.78a.529.529 0 0 0 .194.452.678.678 0 0 0 .839 0 .528.528 0 0 0 .194-.452v-4.78Zm8.054.032a2.648 2.648 0 0 0-.2-1.042 2.6 2.6 0 0 0-.556-.832 2.49 2.49 0 0 0-.83-.549 2.647 2.647 0 0 0-1.008-.194h-.161a2.555 2.555 0 0 0-1.008.2 2.578 2.578 0 0 0-1.387 1.389 2.561 2.561 0 0 0-.2 1.009v2.777a2.529 2.529 0 0 0 .758 1.833 2.657 2.657 0 0 0 .831.549 2.555 2.555 0 0 0 1.008.2h.161a2.5 2.5 0 0 0 2.354-1.534.546.546 0 0 0 .065-.275.587.587 0 0 0-.193-.452.628.628 0 0 0-.435-.178.55.55 0 0 0-.532.388 1.59 1.59 0 0 1-.476.581 1.244 1.244 0 0 1-.782.242h-.161a1.323 1.323 0 0 1-.968-.4 1.307 1.307 0 0 1-.4-.962v-.818h3.516a.579.579 0 0 0 .435-.186.6.6 0 0 0 .177-.428v-1.324Zm-1.226.807h-2.9v-.813a1.317 1.317 0 0 1 .411-.984 1.354 1.354 0 0 1 .976-.4h.161a1.317 1.317 0 0 1 .943.4 1.336 1.336 0 0 1 .411 1v.8Zm9.236-.824a2.937 2.937 0 0 0-.21-1.155 2.311 2.311 0 0 0-.565-.815 2.252 2.252 0 0 0-.823-.476 3.138 3.138 0 0 0-.984-.153h-.145a2.387 2.387 0 0 0-.79.129 1.548 1.548 0 0 0-.6.355.549.549 0 0 0-.226-.363.674.674 0 0 0-.387-.121.663.663 0 0 0-.435.161.557.557 0 0 0-.193.452v6.75a.529.529 0 0 0 .193.452.678.678 0 0 0 .839 0 .529.529 0 0 0 .194-.452v-4.764a1.306 1.306 0 0 1 .409-.977 1.348 1.348 0 0 1 .97-.4h.144a1.374 1.374 0 0 1 1.379 1.373v4.764a.525.525 0 0 0 .2.452.7.7 0 0 0 .425.145.666.666 0 0 0 .417-.145.536.536 0 0 0 .188-.452v-4.764Zm8.687 4.384a.585.585 0 0 0-.4-.218.481.481 0 0 1-.419-.533v-3.746a2.437 2.437 0 0 0-.193-.969 2.506 2.506 0 0 0-.532-.791 2.453 2.453 0 0 0-.806-.533 2.587 2.587 0 0 0-1-.194h-.113a3.144 3.144 0 0 0-.661.073 2.579 2.579 0 0 0-.661.242 2.4 2.4 0 0 0-.6.46 2.469 2.469 0 0 0-.476.727.582.582 0 0 0-.064.291.5.5 0 0 0 .194.412.66.66 0 0 0 .419.153.675.675 0 0 0 .306-.073.573.573 0 0 0 .242-.25 1.773 1.773 0 0 1 .516-.606 1.364 1.364 0 0 1 .79-.2h.113a1.488 1.488 0 0 1 .919.291 1.2 1.2 0 0 1 .387 1.017q0 .065-.008.145a.284.284 0 0 1-.04.129.753.753 0 0 1-.444.2q-.347.073-.8.153t-.951.21a3.484 3.484 0 0 0-.919.379 2.145 2.145 0 0 0-.694.662 1.84 1.84 0 0 0-.274 1.042v.194a2.143 2.143 0 0 0 .226 1 2.232 2.232 0 0 0 .589.727 2.5 2.5 0 0 0 .83.436 3.188 3.188 0 0 0 .952.145h.145a2.568 2.568 0 0 0 1.742-.63 1.447 1.447 0 0 0 .419.388 1.788 1.788 0 0 0 .677.226.216.216 0 0 0 .113.016.543.543 0 0 0 .443-.186.653.653 0 0 0 .153-.428.615.615 0 0 0-.121-.363Zm-2.04-1.623a1.3 1.3 0 0 1-.411.977 1.359 1.359 0 0 1-.976.4h-.145a1.526 1.526 0 0 1-.992-.307 1 1 0 0 1-.379-.824v-.129a.78.78 0 0 1 .282-.646 2.086 2.086 0 0 1 .718-.355 6.618 6.618 0 0 1 .944-.2 9.473 9.473 0 0 0 .959-.186v1.276Zm8.6-4.57a1.647 1.647 0 0 0-.75-.606 2.46 2.46 0 0 0-.927-.186 2.421 2.421 0 0 0-.532.048 1.983 1.983 0 0 0-.355.113.739.739 0 0 0-.274.161.5.5 0 0 0-.226-.25.66.66 0 0 0-.734.089.547.547 0 0 0-.2.452v6.718a.571.571 0 0 0 .194.476.65.65 0 0 0 .839 0 .571.571 0 0 0 .193-.476V55.14a2.346 2.346 0 0 1 .032-.388.8.8 0 0 1 .145-.347.811.811 0 0 1 .323-.25 1.412 1.412 0 0 1 .58-.1.808.808 0 0 1 .476.121 2.15 2.15 0 0 1 .266.218.693.693 0 0 0 .5.226.6.6 0 0 0 .419-.161.541.541 0 0 0 .177-.42.79.79 0 0 0-.145-.42Zm7.981 1.809a2.566 2.566 0 0 0-.2-1.009 2.59 2.59 0 0 0-2.411-1.591h-.117a2.4 2.4 0 0 0-.806.137 1.309 1.309 0 0 0-.6.4v-3.294a.552.552 0 0 0-.193-.46.65.65 0 0 0-.839 0 .552.552 0 0 0-.193.46v10.152a.488.488 0 0 0 .193.428.711.711 0 0 0 .419.137.7.7 0 0 0 .387-.115.477.477 0 0 0 .21-.36 1.618 1.618 0 0 0 .524.327 2.214 2.214 0 0 0 .863.147h.145a2.556 2.556 0 0 0 1.008-.2 2.622 2.622 0 0 0 1.4-1.365 2.463 2.463 0 0 0 .21-1.017v-2.777Zm-1.228 2.765a1.317 1.317 0 0 1-.4.966 1.339 1.339 0 0 1-.984.4h-.145a1.464 1.464 0 0 1-.96-.338 1.143 1.143 0 0 1-.411-.934v-2.995a1.109 1.109 0 0 1 .411-.9 1.466 1.466 0 0 1 .96-.338h.145a1.339 1.339 0 0 1 .984.4 1.317 1.317 0 0 1 .4.966v2.769Zm9.228-2.749a2.647 2.647 0 0 0-.2-1.042 2.6 2.6 0 0 0-.556-.832 2.491 2.491 0 0 0-.831-.549 2.646 2.646 0 0 0-1.008-.194h-.161a2.555 2.555 0 0 0-1.008.2 2.579 2.579 0 0 0-1.387 1.389 2.563 2.563 0 0 0-.2 1.009v2.777a2.527 2.527 0 0 0 .758 1.833 2.655 2.655 0 0 0 .831.549 2.555 2.555 0 0 0 1.008.2h.161a2.5 2.5 0 0 0 2.355-1.534.547.547 0 0 0 .064-.275.587.587 0 0 0-.193-.452.628.628 0 0 0-.436-.178.55.55 0 0 0-.532.388 1.591 1.591 0 0 1-.476.581 1.244 1.244 0 0 1-.782.242h-.161a1.324 1.324 0 0 1-.968-.4 1.307 1.307 0 0 1-.4-.962v-.818h3.516a.579.579 0 0 0 .435-.186.6.6 0 0 0 .177-.428v-1.324Zm-1.226.807h-2.9v-.813a1.316 1.316 0 0 1 .411-.984 1.354 1.354 0 0 1 .976-.4h.161a1.318 1.318 0 0 1 .943.4 1.336 1.336 0 0 1 .411 1v.8Zm5.2-6.185a.552.552 0 0 0-.194-.46.65.65 0 0 0-.839 0 .552.552 0 0 0-.194.46v.355a.552.552 0 0 0 .194.46.65.65 0 0 0 .839 0 .551.551 0 0 0 .194-.46v-.355Zm0 3.375a.552.552 0 0 0-.194-.46.65.65 0 0 0-.839 0 .552.552 0 0 0-.194.46v6.75a.529.529 0 0 0 .194.452.677.677 0 0 0 .839 0 .528.528 0 0 0 .194-.452v-6.75Zm6.378 6.333a.592.592 0 0 0-.427-.213 1.156 1.156 0 0 1-.653-.266.8.8 0 0 1-.282-.652v-4.54h.871a.55.55 0 0 0 .46-.194.652.652 0 0 0 0-.84.551.551 0 0 0-.46-.194h-.871v-2.81a.552.552 0 0 0-.194-.46.65.65 0 0 0-.839 0 .552.552 0 0 0-.194.46v2.81h-.564a.55.55 0 0 0-.46.194.652.652 0 0 0 0 .84.55.55 0 0 0 .46.194h.564v4.57a2.12 2.12 0 0 0 .161.824 2.076 2.076 0 0 0 1.129 1.13 2.117 2.117 0 0 0 .823.162.554.554 0 0 0 .468-.188.667.667 0 0 0 .145-.417.658.658 0 0 0-.137-.409Zm9.1.78a8.016 8.016 0 0 1-.685-1.413 10.323 10.323 0 0 1-.476-1.728 10.558 10.558 0 0 1-.177-1.97 10.254 10.254 0 0 1 .177-1.93 10.971 10.971 0 0 1 .468-1.72 8.3 8.3 0 0 1 .669-1.421 5.393 5.393 0 0 1 .782-1.033.54.54 0 0 0 .177-.388.587.587 0 0 0-.194-.42.7.7 0 0 0-.419-.178.585.585 0 0 0-.419.194 6.975 6.975 0 0 0-.943 1.251 9.211 9.211 0 0 0-.766 1.623 12.319 12.319 0 0 0-.516 1.905 11.3 11.3 0 0 0-.193 2.115 11.957 11.957 0 0 0 .718 4.094 8.888 8.888 0 0 0 .782 1.623 6.4 6.4 0 0 0 .968 1.227.57.57 0 0 0 .4.194.6.6 0 0 0 .435-.194.492.492 0 0 0 .21-.4.572.572 0 0 0-.194-.4 5.32 5.32 0 0 1-.806-1.025Zm9.178-5.321a.635.635 0 0 0-.613-.614h-2.305a.55.55 0 0 0-.46.194.652.652 0 0 0 0 .84.55.55 0 0 0 .46.194h1.693v1.881a1.755 1.755 0 0 1-.145.716 1.877 1.877 0 0 1-.976.973 1.771 1.771 0 0 1-.718.145h-.161a1.762 1.762 0 0 1-.718-.145 1.879 1.879 0 0 1-.976-.975 1.766 1.766 0 0 1-.139-.719v-5.222a1.727 1.727 0 0 1 .145-.7 1.88 1.88 0 0 1 .976-.975 1.766 1.766 0 0 1 .718-.145h.161a1.705 1.705 0 0 1 1.25.452 2.093 2.093 0 0 1 .589 1.13.571.571 0 0 0 .226.4.672.672 0 0 0 .387.121.661.661 0 0 0 .419-.153.533.533 0 0 0 .194-.444v-.1a3.061 3.061 0 0 0-.347-1.05 2.914 2.914 0 0 0-.677-.832 3.252 3.252 0 0 0-.935-.549 3.049 3.049 0 0 0-1.1-.2h-.161a2.993 2.993 0 0 0-1.193.242 3.076 3.076 0 0 0-.976.654 3.109 3.109 0 0 0-.653.969 2.99 2.99 0 0 0-.242 1.2v5.216a2.987 2.987 0 0 0 .242 1.2 3.11 3.11 0 0 0 .653.969 2.966 2.966 0 0 0 .976.646 3.086 3.086 0 0 0 1.193.234h.161a3.087 3.087 0 0 0 1.193-.234 2.969 2.969 0 0 0 .976-.646 3.111 3.111 0 0 0 .653-.969 2.987 2.987 0 0 0 .242-1.2v-2.5Zm4.465-5.167a.552.552 0 0 0-.193-.46.65.65 0 0 0-.839 0 .552.552 0 0 0-.193.46v10.125a.529.529 0 0 0 .193.452.677.677 0 0 0 .839 0 .529.529 0 0 0 .193-.452V50.071Zm8.958 9.608a.551.551 0 0 0-.46-.194h-4.064l4.58-8.8a.88.88 0 0 0 .113-.42.684.684 0 0 0-.21-.5.722.722 0 0 0-.532-.21h-4.608a.546.546 0 0 0-.468.194.68.68 0 0 0 0 .84.546.546 0 0 0 .468.194h3.822l-4.564 8.768a.8.8 0 0 0-.1.388.846.846 0 0 0 .185.541.63.63 0 0 0 .524.234h4.854a.551.551 0 0 0 .46-.194.652.652 0 0 0 0-.84Zm5.554-6.338a11.976 11.976 0 0 0-.508-1.922 9.139 9.139 0 0 0-.766-1.631 6.11 6.11 0 0 0-.96-1.235.585.585 0 0 0-.419-.194.7.7 0 0 0-.419.178.586.586 0 0 0-.194.42.54.54 0 0 0 .177.388 5.023 5.023 0 0 1 .8 1.033 8.323 8.323 0 0 1 .669 1.421 10.432 10.432 0 0 1 .46 1.72 10.738 10.738 0 0 1 .169 1.93 10.574 10.574 0 0 1-.177 1.97 10.37 10.37 0 0 1-.476 1.728 8.029 8.029 0 0 1-.685 1.413 5.324 5.324 0 0 1-.806 1.025.539.539 0 0 0-.177.388.587.587 0 0 0 .193.42.639.639 0 0 0 .436.194.571.571 0 0 0 .4-.194 6.428 6.428 0 0 0 .968-1.227 8.92 8.92 0 0 0 .782-1.623 12.043 12.043 0 0 0 .532-6.2Zm12.764 1.9a.635.635 0 0 0-.613-.614h-2.306a.55.55 0 0 0-.46.194.652.652 0 0 0 0 .84.55.55 0 0 0 .46.194h1.693v1.881a1.756 1.756 0 0 1-.145.716 1.876 1.876 0 0 1-.976.973 1.771 1.771 0 0 1-.718.145h-.161a1.763 1.763 0 0 1-.718-.145 1.88 1.88 0 0 1-.976-.975 1.766 1.766 0 0 1-.145-.717V52.51a1.727 1.727 0 0 1 .145-.7 1.88 1.88 0 0 1 .976-.975 1.767 1.767 0 0 1 .718-.145h.161a1.706 1.706 0 0 1 1.25.452 2.093 2.093 0 0 1 .589 1.13.571.571 0 0 0 .226.4.672.672 0 0 0 .387.121.661.661 0 0 0 .419-.153.533.533 0 0 0 .193-.444v-.1a3.064 3.064 0 0 0-.347-1.05 2.913 2.913 0 0 0-.677-.832 3.252 3.252 0 0 0-.935-.549 3.049 3.049 0 0 0-1.1-.2h-.161a2.993 2.993 0 0 0-1.193.242 3.044 3.044 0 0 0-1.629 1.623 2.987 2.987 0 0 0-.242 1.2v5.216a2.986 2.986 0 0 0 .242 1.2 3.107 3.107 0 0 0 .653.969 2.967 2.967 0 0 0 .976.646 3.086 3.086 0 0 0 1.193.234h.161a3.087 3.087 0 0 0 1.193-.234 2.968 2.968 0 0 0 .976-.646 3.109 3.109 0 0 0 .653-.969 2.987 2.987 0 0 0 .242-1.2v-2.5Zm12.452.178a2.937 2.937 0 0 0-.21-1.155 2.181 2.181 0 0 0-.573-.807 2.394 2.394 0 0 0-.831-.468 3.139 3.139 0 0 0-.984-.153h-.145a2.5 2.5 0 0 0-1.121.25.911.911 0 0 1-1.758 0 2.5 2.5 0 0 0-1.121-.25h-.145a2.387 2.387 0 0 0-.79.129 1.548 1.548 0 0 0-.6.355.549.549 0 0 0-.226-.363.648.648 0 0 0-.371-.121.663.663 0 0 0-.435.161.557.557 0 0 0-.193.452v6.75a.529.529 0 0 0 .193.452.677.677 0 0 0 .839 0 .528.528 0 0 0 .194-.452v-4.893a1.1 1.1 0 0 1 .419-.9 1.5 1.5 0 0 1 .968-.339h.145a1.366 1.366 0 0 1 .984.388 1.327 1.327 0 0 1 .4 1v4.715a.571.571 0 0 0 .194.476.65.65 0 0 0 .839 0 .571.571 0 0 0 .194-.476v-4.715a1.334 1.334 0 0 1 .4-.993 1.352 1.352 0 0 1 .984-.4h.145a1.431 1.431 0 0 1 .992.339 1.3 1.3 0 0 1 .379 1.017v4.78a.529.529 0 0 0 .194.452.677.677 0 0 0 .839 0 .529.529 0 0 0 .194-.452v-4.78Zm8.336.016a2.565 2.565 0 0 0-.2-1.009 2.59 2.59 0 0 0-2.411-1.591h-.113a2.4 2.4 0 0 0-.806.137 1.31 1.31 0 0 0-.6.4v-3.294a.552.552 0 0 0-.194-.46.65.65 0 0 0-.838 0 .552.552 0 0 0-.194.46v10.15a.488.488 0 0 0 .194.428.711.711 0 0 0 .419.137.7.7 0 0 0 .387-.115.477.477 0 0 0 .21-.36 1.621 1.621 0 0 0 .524.327 2.215 2.215 0 0 0 .863.147h.145a2.556 2.556 0 0 0 1.008-.2 2.623 2.623 0 0 0 1.395-1.364 2.464 2.464 0 0 0 .21-1.017v-2.783Zm-1.226 2.765a1.317 1.317 0 0 1-.4.966 1.339 1.339 0 0 1-.984.4h-.145a1.464 1.464 0 0 1-.96-.338 1.143 1.143 0 0 1-.411-.934v-2.995a1.108 1.108 0 0 1 .411-.9 1.465 1.465 0 0 1 .96-.338h.145a1.339 1.339 0 0 1 .984.4 1.317 1.317 0 0 1 .4.966v2.769Zm10.524-8.126a.552.552 0 0 0-.193-.46.65.65 0 0 0-.839 0 .551.551 0 0 0-.194.46v4.263h-3.822v-4.263a.552.552 0 0 0-.194-.46.65.65 0 0 0-.839 0 .552.552 0 0 0-.194.46v10.125a.528.528 0 0 0 .194.452.677.677 0 0 0 .839 0 .528.528 0 0 0 .194-.452v-4.634h3.822v4.634a.524.524 0 0 0 .194.46.709.709 0 0 0 .839 0 .525.525 0 0 0 .193-.46V50.071Z" data-name="Pfad 8019"/>
	<path fill="#c80f0f" d="M118.039 32.004a.551.551 0 0 0-.46-.194 2.1 2.1 0 0 0-.831.161 2.073 2.073 0 0 0-.661.444 1.935 1.935 0 0 0-.435.678 2.324 2.324 0 0 0-.153.848v1.292h-.355a.55.55 0 0 0-.46.194.652.652 0 0 0 0 .84.55.55 0 0 0 .46.194h.355v6.088a.529.529 0 0 0 .194.452.678.678 0 0 0 .839 0 .529.529 0 0 0 .194-.452v-6.088h.758a.55.55 0 0 0 .46-.194.663.663 0 0 0 .153-.42.686.686 0 0 0-.145-.42.546.546 0 0 0-.468-.194h-.758v-1.292a.934.934 0 0 1 .234-.638.785.785 0 0 1 .621-.266.551.551 0 0 0 .46-.194.652.652 0 0 0 0-.84Zm7.176.42a.543.543 0 0 0-.2-.46.7.7 0 0 0-.427-.153.63.63 0 0 0-.411.153.563.563 0 0 0-.185.46v.355a.551.551 0 0 0 .194.46.65.65 0 0 0 .839 0 .552.552 0 0 0 .193-.46v-.355Zm-2.967 0a.552.552 0 0 0-.194-.46.65.65 0 0 0-.839 0 .552.552 0 0 0-.194.46v.355a.551.551 0 0 0 .194.46.65.65 0 0 0 .839 0 .552.552 0 0 0 .194-.46v-.355Zm3.564 3.375a.552.552 0 0 0-.194-.46.65.65 0 0 0-.839 0 .55.55 0 0 0-.194.459v4.752a1.318 1.318 0 0 1-.4.967 1.339 1.339 0 0 1-.984.4h-.145a1.376 1.376 0 0 1-1.371-1.369v-4.752a.55.55 0 0 0-.193-.459.65.65 0 0 0-.839 0 .552.552 0 0 0-.194.46v4.764a2.916 2.916 0 0 0 .21 1.163 2.235 2.235 0 0 0 .564.8 2.293 2.293 0 0 0 .83.468 3.212 3.212 0 0 0 .992.153h.145a2.505 2.505 0 0 0 .79-.123 1.466 1.466 0 0 0 .6-.352.525.525 0 0 0 .226.36.7.7 0 0 0 .387.115.662.662 0 0 0 .419-.153.533.533 0 0 0 .194-.444v-6.75Zm6.877.178a1.646 1.646 0 0 0-.75-.606 2.46 2.46 0 0 0-.927-.186 2.423 2.423 0 0 0-.532.048 1.983 1.983 0 0 0-.355.113.739.739 0 0 0-.274.161.5.5 0 0 0-.226-.25.66.66 0 0 0-.734.089.546.546 0 0 0-.2.452v6.72a.571.571 0 0 0 .193.476.65.65 0 0 0 .839 0 .571.571 0 0 0 .193-.476v-5.022a2.345 2.345 0 0 1 .032-.388.8.8 0 0 1 .145-.347.812.812 0 0 1 .323-.25 1.412 1.412 0 0 1 .58-.1.808.808 0 0 1 .476.121 2.136 2.136 0 0 1 .266.218.692.692 0 0 0 .5.226.6.6 0 0 0 .419-.162.541.541 0 0 0 .177-.42.79.79 0 0 0-.145-.42Zm9.192-3.553a.552.552 0 0 0-.193-.46.65.65 0 0 0-.839 0 .552.552 0 0 0-.194.46v10.125a.529.529 0 0 0 .194.452.678.678 0 0 0 .839 0 .529.529 0 0 0 .193-.452V32.424Zm8.613 5.361a2.934 2.934 0 0 0-.21-1.155 2.307 2.307 0 0 0-.564-.815 2.252 2.252 0 0 0-.823-.476 3.138 3.138 0 0 0-.984-.153h-.145a2.386 2.386 0 0 0-.79.129 1.547 1.547 0 0 0-.6.355.548.548 0 0 0-.226-.363.673.673 0 0 0-.387-.121.663.663 0 0 0-.435.161.557.557 0 0 0-.194.452v6.75a.529.529 0 0 0 .194.452.678.678 0 0 0 .839 0 .529.529 0 0 0 .194-.452v-4.764a1.306 1.306 0 0 1 .409-.977 1.348 1.348 0 0 1 .97-.4h.144a1.374 1.374 0 0 1 1.379 1.373v4.764a.525.525 0 0 0 .2.452.7.7 0 0 0 .425.145.666.666 0 0 0 .417-.145.536.536 0 0 0 .188-.452v-4.764Zm6.041 4.347a.592.592 0 0 0-.427-.213 1.158 1.158 0 0 1-.653-.266.8.8 0 0 1-.282-.652v-4.54h.871a.551.551 0 0 0 .46-.194.652.652 0 0 0 0-.84.551.551 0 0 0-.46-.194h-.871v-2.81a.552.552 0 0 0-.194-.46.65.65 0 0 0-.839 0 .552.552 0 0 0-.193.46v2.81h-.565a.55.55 0 0 0-.46.194.652.652 0 0 0 0 .84.55.55 0 0 0 .46.194h.565v4.57a2.119 2.119 0 0 0 .161.824 2.077 2.077 0 0 0 1.129 1.13 2.118 2.118 0 0 0 .823.161.554.554 0 0 0 .468-.188.667.667 0 0 0 .145-.417.658.658 0 0 0-.137-.409Zm7.721-4.33a2.646 2.646 0 0 0-.2-1.042 2.6 2.6 0 0 0-.556-.832 2.49 2.49 0 0 0-.831-.549 2.647 2.647 0 0 0-1.008-.194h-.161a2.554 2.554 0 0 0-1.008.2 2.579 2.579 0 0 0-1.387 1.389 2.561 2.561 0 0 0-.2 1.009v2.777a2.528 2.528 0 0 0 .758 1.833 2.653 2.653 0 0 0 .831.549 2.555 2.555 0 0 0 1.008.2h.161a2.5 2.5 0 0 0 2.355-1.534.546.546 0 0 0 .065-.274.587.587 0 0 0-.193-.452.628.628 0 0 0-.435-.178.55.55 0 0 0-.532.388 1.591 1.591 0 0 1-.476.581 1.244 1.244 0 0 1-.782.242h-.161a1.324 1.324 0 0 1-.968-.4 1.307 1.307 0 0 1-.4-.962v-.818h3.516a.579.579 0 0 0 .435-.186.6.6 0 0 0 .177-.428v-1.324Zm-1.226.807h-2.9v-.813a1.317 1.317 0 0 1 .411-.984 1.354 1.354 0 0 1 .976-.4h.161a1.318 1.318 0 0 1 .943.4 1.336 1.336 0 0 1 .411 1v.8Zm7.837-2.632a1.647 1.647 0 0 0-.75-.606 2.459 2.459 0 0 0-.927-.186 2.423 2.423 0 0 0-.532.048 1.987 1.987 0 0 0-.355.113.738.738 0 0 0-.274.161.5.5 0 0 0-.226-.25.66.66 0 0 0-.734.089.546.546 0 0 0-.2.452v6.72a.571.571 0 0 0 .194.476.65.65 0 0 0 .839 0 .57.57 0 0 0 .193-.476v-5.022a2.352 2.352 0 0 1 .032-.388.8.8 0 0 1 .145-.347.813.813 0 0 1 .323-.25 1.413 1.413 0 0 1 .581-.1.808.808 0 0 1 .476.121 2.133 2.133 0 0 1 .266.218.693.693 0 0 0 .5.226.6.6 0 0 0 .419-.162.541.541 0 0 0 .177-.42.789.789 0 0 0-.145-.42Zm7.6 1.809a2.934 2.934 0 0 0-.21-1.155 2.309 2.309 0 0 0-.565-.815 2.252 2.252 0 0 0-.822-.476 3.138 3.138 0 0 0-.984-.153h-.145a2.386 2.386 0 0 0-.79.129 1.546 1.546 0 0 0-.6.355.548.548 0 0 0-.226-.363.673.673 0 0 0-.387-.121.663.663 0 0 0-.435.161.556.556 0 0 0-.194.452v6.75a.529.529 0 0 0 .194.452.678.678 0 0 0 .839 0 .529.529 0 0 0 .194-.452v-4.764a1.306 1.306 0 0 1 .409-.977 1.349 1.349 0 0 1 .97-.4h.144a1.374 1.374 0 0 1 1.379 1.373v4.764a.525.525 0 0 0 .2.452.7.7 0 0 0 .425.145.665.665 0 0 0 .417-.145.535.535 0 0 0 .188-.452v-4.764Zm8.687 4.384a.585.585 0 0 0-.4-.218.481.481 0 0 1-.419-.533v-3.746a2.434 2.434 0 0 0-.194-.969 2.5 2.5 0 0 0-.532-.791 2.452 2.452 0 0 0-.806-.533 2.587 2.587 0 0 0-1-.194h-.111a3.146 3.146 0 0 0-.661.073 2.578 2.578 0 0 0-.661.242 2.4 2.4 0 0 0-.6.46 2.465 2.465 0 0 0-.476.727.581.581 0 0 0-.064.291.5.5 0 0 0 .193.412.66.66 0 0 0 .419.153.676.676 0 0 0 .306-.073.573.573 0 0 0 .242-.25 1.776 1.776 0 0 1 .516-.606 1.364 1.364 0 0 1 .79-.2h.113a1.487 1.487 0 0 1 .919.291 1.2 1.2 0 0 1 .387 1.017c0 .043 0 .092-.008.145a.284.284 0 0 1-.04.129.752.752 0 0 1-.443.2q-.347.073-.8.153t-.952.21a3.49 3.49 0 0 0-.919.379 2.143 2.143 0 0 0-.693.662 1.839 1.839 0 0 0-.274 1.042v.194a2.144 2.144 0 0 0 .226 1 2.233 2.233 0 0 0 .589.727 2.5 2.5 0 0 0 .831.436 3.189 3.189 0 0 0 .951.145h.145a2.568 2.568 0 0 0 1.742-.63 1.446 1.446 0 0 0 .419.388 1.786 1.786 0 0 0 .677.226.215.215 0 0 0 .113.016.543.543 0 0 0 .444-.186.652.652 0 0 0 .153-.428.614.614 0 0 0-.121-.363Zm-2.04-1.623a1.3 1.3 0 0 1-.411.977 1.359 1.359 0 0 1-.976.4h-.145a1.526 1.526 0 0 1-.992-.307 1 1 0 0 1-.379-.824v-.129a.779.779 0 0 1 .282-.646 2.085 2.085 0 0 1 .718-.355 6.613 6.613 0 0 1 .943-.2 9.477 9.477 0 0 0 .96-.186v1.276Zm7.5 1.585a.592.592 0 0 0-.427-.213 1.157 1.157 0 0 1-.653-.266.8.8 0 0 1-.282-.652v-4.54h.871a.551.551 0 0 0 .46-.194.652.652 0 0 0 0-.84.551.551 0 0 0-.46-.194h-.871v-2.81a.552.552 0 0 0-.194-.46.65.65 0 0 0-.839 0 .552.552 0 0 0-.194.46v2.81h-.564a.55.55 0 0 0-.46.194.652.652 0 0 0 0 .84.55.55 0 0 0 .46.194h.564v4.57a2.121 2.121 0 0 0 .161.824 2.076 2.076 0 0 0 1.129 1.13 2.117 2.117 0 0 0 .822.161.554.554 0 0 0 .468-.188.667.667 0 0 0 .145-.417.658.658 0 0 0-.137-.409Zm3.968-9.708a.552.552 0 0 0-.193-.46.65.65 0 0 0-.839 0 .552.552 0 0 0-.193.46v.355a.552.552 0 0 0 .193.46.65.65 0 0 0 .839 0 .552.552 0 0 0 .193-.46v-.355Zm0 3.375a.552.552 0 0 0-.193-.46.65.65 0 0 0-.839 0 .552.552 0 0 0-.193.46v6.75a.529.529 0 0 0 .193.452.678.678 0 0 0 .839 0 .529.529 0 0 0 .193-.452v-6.75Zm8.241 1.986a2.562 2.562 0 0 0-.2-1.009 2.579 2.579 0 0 0-1.387-1.389 2.555 2.555 0 0 0-1.008-.2h-.161a2.555 2.555 0 0 0-1.008.2 2.579 2.579 0 0 0-1.387 1.389 2.561 2.561 0 0 0-.2 1.009v2.777a2.528 2.528 0 0 0 .758 1.833 2.656 2.656 0 0 0 .831.549 2.555 2.555 0 0 0 1.008.2h.161a2.556 2.556 0 0 0 1.008-.2 2.658 2.658 0 0 0 .83-.549 2.528 2.528 0 0 0 .758-1.833v-2.777Zm-1.226 2.765a1.375 1.375 0 0 1-1.37 1.368h-.145a1.338 1.338 0 0 1-.984-.4 1.316 1.316 0 0 1-.4-.966v-2.769a1.376 1.376 0 0 1 1.371-1.369h.161a1.376 1.376 0 0 1 1.371 1.369v2.769Zm9.379-2.765a2.932 2.932 0 0 0-.21-1.155 2.308 2.308 0 0 0-.564-.815 2.252 2.252 0 0 0-.822-.476 3.139 3.139 0 0 0-.984-.153h-.145a2.386 2.386 0 0 0-.79.129 1.548 1.548 0 0 0-.6.355.549.549 0 0 0-.226-.363.673.673 0 0 0-.387-.121.663.663 0 0 0-.435.161.557.557 0 0 0-.193.452v6.75a.529.529 0 0 0 .193.452.678.678 0 0 0 .839 0 .529.529 0 0 0 .194-.452v-4.764a1.306 1.306 0 0 1 .409-.977 1.348 1.348 0 0 1 .97-.4h.144a1.373 1.373 0 0 1 1.379 1.373v4.764a.525.525 0 0 0 .2.452.7.7 0 0 0 .425.145.665.665 0 0 0 .417-.145.536.536 0 0 0 .188-.452v-4.764Zm8.687 4.384a.585.585 0 0 0-.4-.218.481.481 0 0 1-.419-.533v-3.746a2.435 2.435 0 0 0-.194-.969 2.5 2.5 0 0 0-.532-.791 2.452 2.452 0 0 0-.806-.533 2.587 2.587 0 0 0-1-.194h-.113a3.147 3.147 0 0 0-.661.073 2.583 2.583 0 0 0-.661.242 2.4 2.4 0 0 0-.6.46 2.465 2.465 0 0 0-.476.727.582.582 0 0 0-.065.291.5.5 0 0 0 .194.412.66.66 0 0 0 .419.153.675.675 0 0 0 .306-.073.573.573 0 0 0 .242-.25 1.776 1.776 0 0 1 .516-.606 1.365 1.365 0 0 1 .79-.2h.113a1.488 1.488 0 0 1 .919.291 1.2 1.2 0 0 1 .387 1.017c0 .043 0 .092-.008.145a.284.284 0 0 1-.04.129.752.752 0 0 1-.443.2q-.347.073-.8.153t-.951.21a3.491 3.491 0 0 0-.919.379 2.143 2.143 0 0 0-.693.662 1.839 1.839 0 0 0-.274 1.042v.194a2.144 2.144 0 0 0 .226 1 2.236 2.236 0 0 0 .589.727 2.5 2.5 0 0 0 .831.436 3.189 3.189 0 0 0 .951.145h.145a2.568 2.568 0 0 0 1.742-.63 1.449 1.449 0 0 0 .419.388 1.786 1.786 0 0 0 .677.226.215.215 0 0 0 .113.016.543.543 0 0 0 .443-.186.653.653 0 0 0 .153-.428.614.614 0 0 0-.121-.363Zm-2.04-1.623a1.3 1.3 0 0 1-.411.977 1.36 1.36 0 0 1-.976.4h-.144a1.526 1.526 0 0 1-.992-.307 1 1 0 0 1-.379-.824v-.129a.78.78 0 0 1 .282-.646 2.086 2.086 0 0 1 .718-.355 6.625 6.625 0 0 1 .944-.2 9.486 9.486 0 0 0 .959-.186v1.276Zm7.184 1.569a.544.544 0 0 0-.468-.2.914.914 0 0 1-.629-.274.856.856 0 0 1-.258-.629v-8.594a.55.55 0 0 0-.193-.46.65.65 0 0 0-.839 0 .552.552 0 0 0-.194.46v8.607a2.119 2.119 0 0 0 .161.824 2.076 2.076 0 0 0 1.129 1.13 2.118 2.118 0 0 0 .823.161.554.554 0 0 0 .468-.188.667.667 0 0 0 .145-.417.7.7 0 0 0-.145-.425Zm7.723-4.314a2.648 2.648 0 0 0-.2-1.042 2.6 2.6 0 0 0-.556-.832 2.489 2.489 0 0 0-.831-.549 2.646 2.646 0 0 0-1.008-.194h-.161a2.554 2.554 0 0 0-1.008.2 2.579 2.579 0 0 0-1.387 1.389 2.56 2.56 0 0 0-.2 1.009v2.777a2.528 2.528 0 0 0 .758 1.833 2.653 2.653 0 0 0 .831.549 2.554 2.554 0 0 0 1.008.2h.161a2.5 2.5 0 0 0 2.354-1.534.547.547 0 0 0 .064-.274.587.587 0 0 0-.193-.452.628.628 0 0 0-.435-.178.55.55 0 0 0-.532.388 1.593 1.593 0 0 1-.476.581 1.244 1.244 0 0 1-.782.242h-.161a1.324 1.324 0 0 1-.968-.4 1.307 1.307 0 0 1-.4-.962v-.818h3.516a.579.579 0 0 0 .435-.186.6.6 0 0 0 .177-.428v-1.324Zm-1.226.807h-2.9v-.813a1.316 1.316 0 0 1 .411-.984 1.354 1.354 0 0 1 .976-.4h.161a1.317 1.317 0 0 1 .943.4 1.335 1.335 0 0 1 .411 1v.8Z" data-name="Pfad 8020"/>
	<path fill="#c80f0f" d="M121.531 17.311a2.949 2.949 0 0 0-.242-1.187 3.066 3.066 0 0 0-1.621-1.623 2.937 2.937 0 0 0-1.185-.242h-2.615a.635.635 0 0 0-.613.614v9.931a.635.635 0 0 0 .613.614h2.613a2.936 2.936 0 0 0 1.185-.242 3.045 3.045 0 0 0 1.621-1.631 3.006 3.006 0 0 0 .242-1.195v-5.039Zm-1.226 5.038a1.776 1.776 0 0 1-.145.719 1.876 1.876 0 0 1-.971.977 1.75 1.75 0 0 1-.715.145h-1.991v-8.7h2.007a1.749 1.749 0 0 1 .715.145 1.783 1.783 0 0 1 .57.4 1.963 1.963 0 0 1 .385.581 1.777 1.777 0 0 1 .145.719v5.022Zm9.418-2.2a2.646 2.646 0 0 0-.2-1.042 2.6 2.6 0 0 0-.555-.827 2.489 2.489 0 0 0-.831-.549 2.646 2.646 0 0 0-1.008-.194h-.161a2.554 2.554 0 0 0-1.008.2 2.579 2.579 0 0 0-1.387 1.389 2.56 2.56 0 0 0-.2 1.009v2.777a2.528 2.528 0 0 0 .758 1.833 2.654 2.654 0 0 0 .831.549 2.554 2.554 0 0 0 1.008.2h.161a2.5 2.5 0 0 0 2.354-1.534.546.546 0 0 0 .065-.275.587.587 0 0 0-.194-.452.628.628 0 0 0-.435-.178.55.55 0 0 0-.532.388 1.59 1.59 0 0 1-.476.581 1.244 1.244 0 0 1-.782.242h-.163a1.323 1.323 0 0 1-.968-.4 1.307 1.307 0 0 1-.4-.962v-.818h3.516a.579.579 0 0 0 .435-.186.6.6 0 0 0 .177-.428v-1.319Zm-1.226.807h-2.9v-.813a1.316 1.316 0 0 1 .411-.984 1.354 1.354 0 0 1 .976-.4h.161a1.317 1.317 0 0 1 .943.4 1.335 1.335 0 0 1 .411 1v.8Zm9.158-2.81a.552.552 0 0 0-.194-.46.65.65 0 0 0-.838 0 .55.55 0 0 0-.194.459v4.752a1.318 1.318 0 0 1-.4.967 1.34 1.34 0 0 1-.984.4h-.145a1.376 1.376 0 0 1-1.371-1.369v-4.746a.55.55 0 0 0-.194-.459.65.65 0 0 0-.839 0 .552.552 0 0 0-.194.46v4.764a2.915 2.915 0 0 0 .21 1.163 2.235 2.235 0 0 0 .564.8 2.293 2.293 0 0 0 .831.468 3.212 3.212 0 0 0 .992.153h.145a2.506 2.506 0 0 0 .79-.123 1.467 1.467 0 0 0 .6-.352.525.525 0 0 0 .226.36.7.7 0 0 0 .387.115.662.662 0 0 0 .419-.153.533.533 0 0 0 .194-.444v-6.75Zm6.256 6.333a.592.592 0 0 0-.427-.213 1.157 1.157 0 0 1-.653-.266.8.8 0 0 1-.282-.652v-4.54h.871a.551.551 0 0 0 .46-.194.652.652 0 0 0 0-.84.551.551 0 0 0-.46-.194h-.871v-2.81a.552.552 0 0 0-.193-.46.65.65 0 0 0-.839 0 .552.552 0 0 0-.194.46v2.81h-.564a.55.55 0 0 0-.46.194.652.652 0 0 0 0 .84.55.55 0 0 0 .46.194h.564v4.57a2.122 2.122 0 0 0 .161.824 2.077 2.077 0 0 0 1.129 1.13 2.118 2.118 0 0 0 .823.161.554.554 0 0 0 .468-.188.668.668 0 0 0 .145-.417.658.658 0 0 0-.137-.409Zm7.949-1.305a2.141 2.141 0 0 0-.314-1.24 2.24 2.24 0 0 0-.774-.7 3.83 3.83 0 0 0-1.004-.364q-.548-.121-1.008-.242a2.708 2.708 0 0 1-.774-.322.685.685 0 0 1-.314-.62v-.048a.792.792 0 0 1 .371-.612 1.742 1.742 0 0 1 1.032-.258h.064a1.944 1.944 0 0 1 .855.153l.564.283a.8.8 0 0 0 .355.1.54.54 0 0 0 .419-.178.585.585 0 0 0 .161-.4.577.577 0 0 0-.226-.474 3.154 3.154 0 0 0-.282-.2 2.513 2.513 0 0 0-.452-.229 4.357 4.357 0 0 0-.613-.188 3.344 3.344 0 0 0-.766-.082h-.064a3.843 3.843 0 0 0-.847.1 2.837 2.837 0 0 0-.855.346 2.217 2.217 0 0 0-.669.636 1.665 1.665 0 0 0-.274.974 1.888 1.888 0 0 0 .311 1.161 2.16 2.16 0 0 0 .774.636 3.956 3.956 0 0 0 1.008.33 8.947 8.947 0 0 1 1.008.25 2.383 2.383 0 0 1 .774.395.918.918 0 0 1 .314.765v.048a1.03 1.03 0 0 1-.411.741 1.7 1.7 0 0 1-1.137.338h-.081a1.672 1.672 0 0 1-.919-.307 3.07 3.07 0 0 1-.774-.71.578.578 0 0 0-.258-.218.8.8 0 0 0-.29-.057.663.663 0 0 0-.435.161.538.538 0 0 0-.193.436 1.387 1.387 0 0 0 .081.307 2.681 2.681 0 0 0 .5.674 3.053 3.053 0 0 0 .677.507 3.617 3.617 0 0 0 .782.319 2.98 2.98 0 0 0 .8.115h.1a3.585 3.585 0 0 0 1-.145 3.042 3.042 0 0 0 .9-.427 2.174 2.174 0 0 0 .645-.7 1.93 1.93 0 0 0 .242-.983v-.064Zm7.634-.756a.662.662 0 0 0-.419-.153.6.6 0 0 0-.613.63 1.478 1.478 0 0 1-.419.969 1.266 1.266 0 0 1-.952.4h-.145a1.338 1.338 0 0 1-.984-.4 1.316 1.316 0 0 1-.4-.966v-2.765a1.376 1.376 0 0 1 1.371-1.369h.161a1.293 1.293 0 0 1 .952.388 1.472 1.472 0 0 1 .419 1 .58.58 0 0 0 .2.452.65.65 0 0 0 .411.145.66.66 0 0 0 .419-.153.552.552 0 0 0 .193-.46 2.48 2.48 0 0 0-.21-1.009 2.789 2.789 0 0 0-.556-.832 2.509 2.509 0 0 0-.823-.557 2.555 2.555 0 0 0-1.008-.2h-.161a2.6 2.6 0 0 0-1.83.751 2.676 2.676 0 0 0-.556.824 2.516 2.516 0 0 0-.21 1.025v2.777a2.528 2.528 0 0 0 .758 1.833 2.656 2.656 0 0 0 .831.549 2.555 2.555 0 0 0 1.008.2h.161a2.528 2.528 0 0 0 1.008-.2 2.658 2.658 0 0 0 .831-.556 2.581 2.581 0 0 0 .556-.821 2.549 2.549 0 0 0 .2-1.018.571.571 0 0 0-.193-.476Zm8.284-2.285a2.566 2.566 0 0 0-.2-1.009 2.579 2.579 0 0 0-1.387-1.389 2.555 2.555 0 0 0-1.008-.2h-.129a2.532 2.532 0 0 0-.806.129 1.4 1.4 0 0 0-.6.355v-3.243a.552.552 0 0 0-.194-.46.65.65 0 0 0-.839 0 .552.552 0 0 0-.194.46v10.125a.528.528 0 0 0 .194.452.678.678 0 0 0 .839 0 .529.529 0 0 0 .194-.452v-4.845a1.149 1.149 0 0 1 .129-.549 1.375 1.375 0 0 1 .331-.412 1.309 1.309 0 0 1 .468-.25 1.854 1.854 0 0 1 .54-.081 1.724 1.724 0 0 1 .516.081 1.41 1.41 0 0 1 .468.25 1.193 1.193 0 0 1 .331.428 1.437 1.437 0 0 1 .121.614v4.764a.529.529 0 0 0 .194.452.678.678 0 0 0 .839 0 .529.529 0 0 0 .193-.452v-4.764Zm7.994.016a2.646 2.646 0 0 0-.2-1.042 2.6 2.6 0 0 0-.556-.832 2.489 2.489 0 0 0-.831-.549 2.646 2.646 0 0 0-1.008-.194h-.161a2.555 2.555 0 0 0-1.008.2 2.579 2.579 0 0 0-1.387 1.389 2.561 2.561 0 0 0-.2 1.009v2.777a2.528 2.528 0 0 0 .758 1.833 2.656 2.656 0 0 0 .83.549 2.555 2.555 0 0 0 1.008.2h.161a2.5 2.5 0 0 0 2.355-1.534.546.546 0 0 0 .065-.275.587.587 0 0 0-.193-.452.628.628 0 0 0-.437-.168.55.55 0 0 0-.532.388 1.59 1.59 0 0 1-.476.581 1.244 1.244 0 0 1-.782.242h-.161a1.323 1.323 0 0 1-.967-.4 1.307 1.307 0 0 1-.4-.962v-.818h3.516a.579.579 0 0 0 .436-.186.6.6 0 0 0 .177-.428v-1.324Zm-1.226.807h-2.9v-.813a1.316 1.316 0 0 1 .411-.984 1.354 1.354 0 0 1 .976-.4h.161a1.317 1.317 0 0 1 .943.4 1.336 1.336 0 0 1 .411 1v.8Zm15.5-1.017a.635.635 0 0 0-.613-.614h-2.306a.55.55 0 0 0-.46.194.652.652 0 0 0 0 .84.55.55 0 0 0 .46.194h1.693v1.881a1.757 1.757 0 0 1-.145.716 1.878 1.878 0 0 1-.976.973 1.771 1.771 0 0 1-.718.145h-.161a1.763 1.763 0 0 1-.718-.145 1.88 1.88 0 0 1-.976-.975 1.762 1.762 0 0 1-.145-.717v-5.22a1.724 1.724 0 0 1 .145-.7 1.88 1.88 0 0 1 .976-.975 1.767 1.767 0 0 1 .718-.145h.161a1.705 1.705 0 0 1 1.25.452 2.092 2.092 0 0 1 .589 1.13.572.572 0 0 0 .226.4.672.672 0 0 0 .387.121.66.66 0 0 0 .419-.153.533.533 0 0 0 .194-.444v-.1a3.061 3.061 0 0 0-.347-1.05 2.917 2.917 0 0 0-.677-.832 3.254 3.254 0 0 0-.935-.549 3.05 3.05 0 0 0-1.1-.2h-.161a2.993 2.993 0 0 0-1.193.242 3.044 3.044 0 0 0-1.629 1.623 2.987 2.987 0 0 0-.242 1.2v5.216a2.986 2.986 0 0 0 .242 1.2 3.107 3.107 0 0 0 .653.969 2.968 2.968 0 0 0 .976.646 3.085 3.085 0 0 0 1.193.234h.161a3.087 3.087 0 0 0 1.193-.234 2.971 2.971 0 0 0 .976-.646 3.106 3.106 0 0 0 .653-.969 2.987 2.987 0 0 0 .242-1.2v-2.5Zm8.184.21a2.647 2.647 0 0 0-.2-1.042 2.6 2.6 0 0 0-.556-.832 2.491 2.491 0 0 0-.831-.549 2.647 2.647 0 0 0-1.008-.194h-.167a2.555 2.555 0 0 0-1.008.2 2.579 2.579 0 0 0-1.387 1.389 2.561 2.561 0 0 0-.2 1.009v2.777a2.528 2.528 0 0 0 .758 1.833 2.654 2.654 0 0 0 .831.549 2.555 2.555 0 0 0 1.008.2h.161a2.5 2.5 0 0 0 2.355-1.534.549.549 0 0 0 .064-.275.587.587 0 0 0-.194-.452.628.628 0 0 0-.435-.178.55.55 0 0 0-.532.388 1.591 1.591 0 0 1-.476.581 1.244 1.244 0 0 1-.782.242h-.163a1.323 1.323 0 0 1-.968-.4 1.306 1.306 0 0 1-.4-.962v-.818h3.516a.579.579 0 0 0 .435-.186.6.6 0 0 0 .177-.428v-1.314Zm-1.226.807h-2.9v-.813a1.316 1.316 0 0 1 .411-.984 1.354 1.354 0 0 1 .976-.4h.161a1.317 1.317 0 0 1 .943.4 1.335 1.335 0 0 1 .411 1v.8Zm9.265 2.218a2.14 2.14 0 0 0-.314-1.24 2.24 2.24 0 0 0-.774-.7 3.83 3.83 0 0 0-1.013-.364q-.548-.121-1.008-.242a2.706 2.706 0 0 1-.774-.322.685.685 0 0 1-.314-.62v-.048a.792.792 0 0 1 .371-.612 1.741 1.741 0 0 1 1.032-.258h.065a1.944 1.944 0 0 1 .855.153l.564.283a.8.8 0 0 0 .355.1.54.54 0 0 0 .419-.178.585.585 0 0 0 .161-.4.577.577 0 0 0-.226-.474 3.177 3.177 0 0 0-.282-.2 2.519 2.519 0 0 0-.452-.229 4.352 4.352 0 0 0-.613-.188 3.345 3.345 0 0 0-.766-.082h-.064a3.841 3.841 0 0 0-.847.1 2.836 2.836 0 0 0-.855.346 2.216 2.216 0 0 0-.669.636 1.665 1.665 0 0 0-.274.974 1.888 1.888 0 0 0 .322 1.161 2.159 2.159 0 0 0 .774.636 3.957 3.957 0 0 0 1.008.33 8.937 8.937 0 0 1 1.008.25 2.383 2.383 0 0 1 .774.395.918.918 0 0 1 .315.765v.048a1.03 1.03 0 0 1-.411.741 1.7 1.7 0 0 1-1.137.338h-.081a1.672 1.672 0 0 1-.919-.307 3.073 3.073 0 0 1-.774-.71.578.578 0 0 0-.258-.218.8.8 0 0 0-.29-.057.663.663 0 0 0-.435.161.539.539 0 0 0-.194.436 1.387 1.387 0 0 0 .081.307 2.683 2.683 0 0 0 .5.674 3.053 3.053 0 0 0 .677.507 3.621 3.621 0 0 0 .782.319 2.98 2.98 0 0 0 .8.115h.1a3.583 3.583 0 0 0 1-.145 3.041 3.041 0 0 0 .9-.427 2.177 2.177 0 0 0 .645-.7 1.931 1.931 0 0 0 .242-.983v-.064Zm7.82-3.025a2.649 2.649 0 0 0-.2-1.042 2.6 2.6 0 0 0-.556-.832 2.492 2.492 0 0 0-.831-.549 2.646 2.646 0 0 0-1.008-.194h-.161a2.554 2.554 0 0 0-1.008.2 2.578 2.578 0 0 0-1.387 1.389 2.56 2.56 0 0 0-.2 1.009v2.777a2.528 2.528 0 0 0 .758 1.833 2.654 2.654 0 0 0 .831.549 2.554 2.554 0 0 0 1.008.2h.161a2.5 2.5 0 0 0 2.354-1.534.546.546 0 0 0 .065-.275.587.587 0 0 0-.193-.452.628.628 0 0 0-.435-.178.55.55 0 0 0-.532.388 1.591 1.591 0 0 1-.476.581 1.244 1.244 0 0 1-.782.242h-.161a1.323 1.323 0 0 1-.968-.4 1.307 1.307 0 0 1-.4-.962v-.818h3.516a.579.579 0 0 0 .435-.186.6.6 0 0 0 .177-.428v-1.314Zm-1.226.807h-2.9v-.813a1.316 1.316 0 0 1 .411-.984 1.354 1.354 0 0 1 .976-.4h.161a1.317 1.317 0 0 1 .943.4 1.335 1.335 0 0 1 .411 1v.8Zm6.55 3.507a.543.543 0 0 0-.468-.2.914.914 0 0 1-.629-.274.855.855 0 0 1-.258-.629v-8.59a.55.55 0 0 0-.194-.46.65.65 0 0 0-.839 0 .552.552 0 0 0-.193.46v8.607a2.121 2.121 0 0 0 .161.824 2.077 2.077 0 0 0 1.129 1.13 2.116 2.116 0 0 0 .822.161.553.553 0 0 0 .468-.188.666.666 0 0 0 .145-.417.7.7 0 0 0-.145-.425Zm5.064 0a.543.543 0 0 0-.468-.2.914.914 0 0 1-.629-.274.856.856 0 0 1-.258-.629v-8.59a.551.551 0 0 0-.194-.46.65.65 0 0 0-.839 0 .552.552 0 0 0-.193.46v8.607a2.12 2.12 0 0 0 .161.824 2.077 2.077 0 0 0 1.129 1.13 2.117 2.117 0 0 0 .822.161.553.553 0 0 0 .468-.188.666.666 0 0 0 .145-.417.7.7 0 0 0-.145-.425Zm7.965-1.289a2.14 2.14 0 0 0-.315-1.24 2.239 2.239 0 0 0-.774-.7 3.828 3.828 0 0 0-1.008-.371q-.548-.121-1.008-.242a2.707 2.707 0 0 1-.774-.322.685.685 0 0 1-.314-.62v-.048a.792.792 0 0 1 .371-.612 1.742 1.742 0 0 1 1.032-.258h.064a1.944 1.944 0 0 1 .855.153l.564.283a.8.8 0 0 0 .355.1.539.539 0 0 0 .419-.178.585.585 0 0 0 .161-.4.577.577 0 0 0-.226-.474 3.152 3.152 0 0 0-.282-.2 2.51 2.51 0 0 0-.451-.229 4.355 4.355 0 0 0-.613-.188 3.343 3.343 0 0 0-.766-.082h-.064a3.841 3.841 0 0 0-.847.1 2.838 2.838 0 0 0-.855.346 2.217 2.217 0 0 0-.669.636 1.665 1.665 0 0 0-.274.974 1.887 1.887 0 0 0 .314 1.168 2.159 2.159 0 0 0 .774.636 3.957 3.957 0 0 0 1.008.33 8.934 8.934 0 0 1 1.008.25 2.382 2.382 0 0 1 .774.395.918.918 0 0 1 .315.765v.048a1.031 1.031 0 0 1-.411.741 1.7 1.7 0 0 1-1.137.338h-.081a1.671 1.671 0 0 1-.919-.307 3.071 3.071 0 0 1-.774-.71.577.577 0 0 0-.258-.218.8.8 0 0 0-.29-.057.663.663 0 0 0-.436.161.539.539 0 0 0-.193.436 1.383 1.383 0 0 0 .081.307 2.685 2.685 0 0 0 .5.674 3.049 3.049 0 0 0 .677.507 3.618 3.618 0 0 0 .782.319 2.981 2.981 0 0 0 .8.115h.1a3.584 3.584 0 0 0 1-.145 3.043 3.043 0 0 0 .9-.427 2.177 2.177 0 0 0 .645-.7 1.93 1.93 0 0 0 .242-.983v-.064Zm7.634-.756a.662.662 0 0 0-.419-.153.6.6 0 0 0-.613.63 1.478 1.478 0 0 1-.419.969 1.266 1.266 0 0 1-.952.4h-.145a1.338 1.338 0 0 1-.984-.4 1.316 1.316 0 0 1-.4-.966v-2.765a1.376 1.376 0 0 1 1.371-1.369h.161a1.293 1.293 0 0 1 .952.388 1.472 1.472 0 0 1 .419 1 .579.579 0 0 0 .2.452.65.65 0 0 0 .411.145.66.66 0 0 0 .419-.153.552.552 0 0 0 .193-.46 2.481 2.481 0 0 0-.21-1.009 2.793 2.793 0 0 0-.556-.832 2.508 2.508 0 0 0-.823-.557 2.555 2.555 0 0 0-1.008-.2h-.161a2.6 2.6 0 0 0-1.83.751 2.675 2.675 0 0 0-.556.824 2.516 2.516 0 0 0-.21 1.025v2.777a2.528 2.528 0 0 0 .758 1.833 2.654 2.654 0 0 0 .831.549 2.555 2.555 0 0 0 1.008.2h.161a2.529 2.529 0 0 0 1.008-.2 2.658 2.658 0 0 0 .831-.556 2.584 2.584 0 0 0 .556-.821 2.551 2.551 0 0 0 .2-1.018.571.571 0 0 0-.193-.476Zm8.128-2.285a2.563 2.563 0 0 0-.2-1.009 2.579 2.579 0 0 0-1.387-1.389 2.556 2.556 0 0 0-1.008-.2h-.129a2.53 2.53 0 0 0-.806.129 1.4 1.4 0 0 0-.6.355v-3.243a.552.552 0 0 0-.193-.46.65.65 0 0 0-.839 0 .552.552 0 0 0-.194.46v10.125a.528.528 0 0 0 .194.452.678.678 0 0 0 .839 0 .529.529 0 0 0 .193-.452v-4.845a1.15 1.15 0 0 1 .129-.549 1.375 1.375 0 0 1 .331-.412 1.309 1.309 0 0 1 .468-.25 1.852 1.852 0 0 1 .54-.081 1.724 1.724 0 0 1 .516.081 1.409 1.409 0 0 1 .468.25 1.193 1.193 0 0 1 .331.428 1.439 1.439 0 0 1 .121.614v4.764a.528.528 0 0 0 .194.452.678.678 0 0 0 .839 0 .529.529 0 0 0 .193-.452v-4.764Zm8.65 4.384a.585.585 0 0 0-.4-.218.481.481 0 0 1-.419-.533v-3.742a2.435 2.435 0 0 0-.193-.969 2.5 2.5 0 0 0-.532-.791 2.452 2.452 0 0 0-.806-.533 2.587 2.587 0 0 0-1-.194h-.113a3.146 3.146 0 0 0-.661.073 2.577 2.577 0 0 0-.661.242 2.4 2.4 0 0 0-.6.46 2.469 2.469 0 0 0-.476.727.581.581 0 0 0-.065.291.5.5 0 0 0 .194.412.66.66 0 0 0 .419.153.676.676 0 0 0 .306-.073.573.573 0 0 0 .242-.25 1.773 1.773 0 0 1 .516-.606 1.364 1.364 0 0 1 .79-.2h.113a1.487 1.487 0 0 1 .919.291 1.2 1.2 0 0 1 .387 1.017q0 .065-.008.145a.284.284 0 0 1-.04.129.752.752 0 0 1-.443.2q-.347.073-.8.153t-.951.21a3.487 3.487 0 0 0-.919.379 2.144 2.144 0 0 0-.693.662 1.84 1.84 0 0 0-.274 1.042v.194a2.146 2.146 0 0 0 .226 1 2.234 2.234 0 0 0 .589.727 2.5 2.5 0 0 0 .83.436 3.19 3.19 0 0 0 .952.145h.145a2.568 2.568 0 0 0 1.742-.63 1.445 1.445 0 0 0 .419.388 1.786 1.786 0 0 0 .677.226.216.216 0 0 0 .113.016.542.542 0 0 0 .443-.186.653.653 0 0 0 .153-.428.614.614 0 0 0-.121-.363Zm-2.04-1.623a1.3 1.3 0 0 1-.411.977 1.359 1.359 0 0 1-.976.4h-.145a1.527 1.527 0 0 1-.992-.307 1 1 0 0 1-.379-.824v-.129a.779.779 0 0 1 .282-.646 2.086 2.086 0 0 1 .718-.355 6.613 6.613 0 0 1 .943-.2 9.469 9.469 0 0 0 .96-.186V22.9Zm7.446-8.542a.551.551 0 0 0-.46-.194 2.1 2.1 0 0 0-.831.161 2.073 2.073 0 0 0-.661.444 1.934 1.934 0 0 0-.435.678 2.322 2.322 0 0 0-.153.848v1.292h-.352a.55.55 0 0 0-.46.194.652.652 0 0 0 0 .84.55.55 0 0 0 .46.194h.355v6.088a.529.529 0 0 0 .193.452.678.678 0 0 0 .839 0 .528.528 0 0 0 .194-.452v-6.084h.758a.551.551 0 0 0 .46-.194.663.663 0 0 0 .153-.42.686.686 0 0 0-.145-.42.546.546 0 0 0-.468-.194h-.758v-1.291a.934.934 0 0 1 .234-.638.785.785 0 0 1 .621-.266.55.55 0 0 0 .46-.194.652.652 0 0 0 0-.84Zm5.29 10.128a.592.592 0 0 0-.427-.213 1.157 1.157 0 0 1-.653-.266.8.8 0 0 1-.282-.652v-4.54h.871a.551.551 0 0 0 .46-.194.652.652 0 0 0 0-.84.551.551 0 0 0-.46-.194h-.871v-2.81a.552.552 0 0 0-.193-.46.65.65 0 0 0-.839 0 .552.552 0 0 0-.193.46v2.81h-.565a.55.55 0 0 0-.459.194.652.652 0 0 0 0 .84.55.55 0 0 0 .459.194h.565v4.57a2.121 2.121 0 0 0 .161.824 2.077 2.077 0 0 0 1.129 1.13 2.117 2.117 0 0 0 .822.161.554.554 0 0 0 .468-.188.667.667 0 0 0 .145-.417.658.658 0 0 0-.137-.409Z" data-name="Pfad 8021"/>
</svg>
